<?xml version="1.0" encoding="UTF-8"?>
<svg id="Layer_1" data-name="Layer 1" xmlns="http://www.w3.org/2000/svg" viewBox="0 0 640.47 343.08">
  <defs>
    <style>
      .cls-1 {
      fill: #424142;
      }

      .cls-2 {
      fill: #39b54a;
      }

      .cls-3 {
      fill: #ee4037;
      }
    </style>
  </defs>
  <g>
    <path class="cls-2" d="M130.44,143.62c2.35,.45,4.49,.78,6.59,1.29,4.1,.99,8,2.47,11.22,5.29,1.12,.98,2.07,2.19,2.96,3.39,.31,.41,.47,1.31,.23,1.66-1.13,1.68-4.37,.99-6.04,.9-3.62-.19-7.24,.37-10.87,.53-4.34,.2-8.27-.51-12.15-2.47-13.13-6.65-21.71-17.01-25.12-31.44-.73-3.11-1.09-6.29-1.02-9.79,2.54,2.55,5.46,4,8.54,5.15,5.06,1.89,10.34,2.9,15.69,3.53,8.75,1.03,17.54,1.31,26.31,.68,7.76-.55,14.08,2.56,19.94,7.08,6.77,5.23,12.03,11.78,16.43,19.06,.53,.87,.56,1.72-.26,2.39-.82,.66-1.64,.45-2.41-.21-3.97-3.44-8.28-6.34-13.07-8.53-5.75-2.63-11.76-4.04-18.1-3.86-6.65,.19-12.84,2.07-18.87,5.35Z"/>
    <path class="cls-3" d="M165.9,183.39c-3.27-3.3-6.46-6.49-9.61-9.73-1.07-1.1-2.24-2.2-2.99-3.5-2.68-4.66,.81-10.58,6.18-10.67,2.13-.04,4.07,.52,5.69,1.9,.66,.56,1.02,.48,1.64-.03,2.85-2.37,7.21-2.53,9.88-.41,3.34,2.65,3.87,7.6,.93,10.69-3.76,3.95-7.69,7.72-11.72,11.76Z"/>
    <path class="cls-2" d="M156.49,141.49c-3.5-1.46-7.12-2.27-10.95-2.35,.67-.09,1.35-.23,2.02-.26,11.28-.5,20.84,3.63,29.24,10.88,.94,.81,2.81,1.9,2.21,3.44-.46,1.16-1.84,.81-2.68,.37-.69-.36-1.4-.7-2.04-1.14-3.36-2.34-6.61-4.84-10-7.14-1.52-1.03-3.26-1.75-4.91-2.6-.96-.4-1.92-.79-2.89-1.19Z"/>
    <path class="cls-2" d="M156.22,142.05c3.8,1.36,7.21,3.58,10.28,6.18,.99,.84,1.95,1.73,2.86,2.66,.56,.57,2.91,2.77,1.39,3.51-.47,.23-1.02,.03-1.49-.2-4.32-2.08-7.42-5.94-11.27-8.7-3.78-2.7-7.99-4.53-12.69-5.01-.12-.01-.21-.12-.19-.24l.02-.15c3.53,.4,7.04,.61,10.44,1.72,.22,.07,.44,.15,.66,.22Z"/>
    <path class="cls-2" d="M145.52,141.09c1.19,.22,2.4,.35,3.56,.67,5.4,1.47,9.71,4.77,13.2,9.04,.2,.25,.41,.51,.46,.83,.17,1.13-1.1,1.07-1.69,.64-1-.73-1.86-1.86-2.77-2.71-3.59-3.36-7.27-6.55-12.07-7.99-.25-.07-.5-.13-.75-.2,.02-.09,.03-.19,.05-.28Z"/>
    <g>
      <path class="cls-2" d="M201.32,199.46c-2.35-.45-4.49-.78-6.59-1.29-4.1-.99-8-2.47-11.22-5.29-1.12-.98-2.07-2.19-2.96-3.39-.31-.41-.47-1.31-.23-1.66,1.13-1.68,4.37-.99,6.04-.9,3.62,.19,7.24-.37,10.87-.53,4.34-.2,8.27,.51,12.15,2.47,13.13,6.65,21.71,17.01,25.12,31.44,.73,3.11,1.09,6.29,1.02,9.79-2.54-2.55-5.46-4-8.54-5.15-5.06-1.89-10.34-2.9-15.69-3.53-8.75-1.03-17.54-1.31-26.31-.68-7.76,.55-14.08-2.56-19.94-7.08-6.77-5.23-12.03-11.78-16.43-19.06-.53-.87-.56-1.72,.26-2.39,.82-.66,1.64-.45,2.41,.21,3.97,3.44,8.28,6.34,13.07,8.53,5.75,2.63,11.76,4.04,18.1,3.86,6.65-.19,12.84-2.07,18.87-5.35Z"/>
      <path class="cls-2" d="M175.28,201.6c3.5,1.46,7.12,2.27,10.95,2.35-.67,.09-1.35,.23-2.02,.26-11.28,.5-20.84-3.63-29.24-10.88-.94-.81-2.81-1.9-2.21-3.44,.46-1.16,1.84-.81,2.68-.37,.69,.36,1.4,.7,2.04,1.14,3.36,2.34,6.61,4.84,10,7.14,1.52,1.03,3.26,1.75,4.91,2.6,.96,.4,1.92,.79,2.89,1.19Z"/>
      <path class="cls-2" d="M175.54,201.04c-3.8-1.36-7.21-3.58-10.28-6.18-.99-.84-1.95-1.73-2.86-2.66-.56-.57-2.91-2.77-1.39-3.51,.47-.23,1.02-.03,1.49,.2,4.32,2.08,7.42,5.94,11.27,8.7,3.78,2.7,7.99,4.53,12.69,5.01,.12,.01,.21,.12,.19,.24l-.02,.15c-3.53-.4-7.04-.61-10.44-1.72-.22-.07-.44-.15-.66-.22Z"/>
      <path class="cls-2" d="M186.24,202c-1.19-.22-2.4-.35-3.56-.67-5.4-1.47-9.71-4.77-13.2-9.04-.2-.25-.41-.51-.46-.83-.17-1.13,1.1-1.07,1.69-.64,1,.73,1.86,1.86,2.77,2.71,3.59,3.36,7.27,6.55,12.07,7.99,.25,.07,.5,.13,.75,.2-.02,.09-.03,.19-.05,.28Z"/>
    </g>
  </g>
  <polygon class="cls-1" points="283.94 163.32 283.94 117.77 274.82 117.77 274.82 135.59 256.75 135.59 256.75 117.77 247.6 117.77 247.6 163.32 256.75 163.32 256.75 143.66 274.82 143.66 274.82 163.32 283.94 163.32"/>
  <path class="cls-1" d="M300.64,116.78c-.96-.7-2.09-1.06-3.38-1.06s-2.48,.36-3.42,1.07c-1.03,.77-1.54,2.04-1.54,3.78s.52,2.98,1.54,3.76c.94,.72,2.09,1.08,3.42,1.08s2.42-.36,3.38-1.08c1.05-.78,1.58-2.05,1.58-3.76s-.53-3.01-1.58-3.78Z"/>
  <rect class="cls-1" x="292.72" y="128.35" width="30" height="45.97"/>
  <path class="cls-1" d="M339.91,155.6c1.14-2.65,1.72-5.95,1.72-9.81,0-5.83-1.28-10.33-3.8-13.37-2.57-3.1-6.01-4.67-10.21-4.67-2.68,0-4.92,.55-6.68,1.62-.87,.53-1.65,1.14-2.33,1.8,0-.06,0-.12,.01-.18,.07-1.26,.11-2.55,.11-3.85v-12.17h-9v48.35h6.97l1.08-3.4c.84,.92,1.87,1.74,3.08,2.47,1.69,1.01,3.9,1.53,6.58,1.53,2.85,0,5.37-.71,7.5-2.12,2.13-1.4,3.81-3.49,4.97-6.2Zm-7.49-9.9c0,3.48-.61,6.15-1.8,7.95-1.12,1.69-2.69,2.52-4.8,2.52-2.73,0-4.52-.8-5.5-2.43-1.06-1.78-1.6-4.44-1.6-7.92v-.62c.02-2.31,.27-4.23,.75-5.7,.45-1.38,1.15-2.37,2.13-3.04,.99-.68,2.39-1.02,4.16-1.02,2.17,0,3.77,.78,4.88,2.4,1.18,1.71,1.77,4.35,1.77,7.86Z"/>
  <path class="cls-1" d="M367.47,159.51l1.09,3.81h6.73v-23.19c0-4.2-1.19-7.36-3.55-9.4-2.31-2-5.71-3.01-10.11-3.01-2.3,0-4.55,.28-6.67,.84-2.12,.55-4.04,1.28-5.71,2.17l-.83,.44,3.08,6.72,.92-.43c1.42-.67,2.9-1.25,4.39-1.71,1.45-.45,2.96-.67,4.5-.67,1.66,0,2.94,.4,3.81,1.2,.84,.77,1.27,2.17,1.27,4.15v.76l-4.75,.17c-5.29,.18-9.33,1.19-12.01,3-2.81,1.9-4.24,4.75-4.24,8.48,0,2.46,.5,4.54,1.48,6.17,.99,1.66,2.37,2.91,4.1,3.71,1.68,.78,3.59,1.18,5.7,1.18,1.96,0,3.65-.21,5.04-.62,1.41-.42,2.68-1.06,3.77-1.91,.68-.53,1.35-1.16,2.01-1.87Zm-1.12-11.91v1.82c0,2.4-.67,4.14-2.05,5.33-1.42,1.23-3.18,1.83-5.38,1.83-1.36,0-2.45-.31-3.23-.91-.72-.55-1.07-1.46-1.07-2.77,0-1.55,.56-2.73,1.72-3.61,1.24-.94,3.52-1.47,6.79-1.58l3.22-.11Z"/>
  <path class="cls-1" d="M274.12,177.31c-3.4-1.68-7.48-2.53-12.12-2.53h-14.4v45.55h13.09c5.03,0,9.41-.87,13-2.58,3.65-1.74,6.47-4.38,8.4-7.83,1.9-3.42,2.87-7.72,2.87-12.77s-.95-8.94-2.81-12.24c-1.88-3.33-4.58-5.88-8.02-7.58Zm-17.37,5.4h5.11c3,0,5.55,.53,7.57,1.57,2,1.03,3.47,2.56,4.5,4.69,1.05,2.16,1.58,4.97,1.58,8.38,0,5.01-1.22,8.8-3.62,11.28-2.39,2.47-6.12,3.72-11.08,3.72h-4.06v-29.63Z"/>
  <path class="cls-1" d="M314.86,186.85c-2.47-1.41-5.34-2.13-8.54-2.13-3.4,0-6.38,.72-8.86,2.13-2.51,1.42-4.46,3.52-5.81,6.22-1.32,2.66-2,5.92-2,9.69,0,2.84,.4,5.41,1.19,7.63,.8,2.25,1.95,4.17,3.42,5.73,1.47,1.56,3.24,2.76,5.25,3.58,2,.81,4.22,1.22,6.6,1.22,2.54,0,4.85-.41,6.89-1.22,2.05-.82,3.84-2.02,5.31-3.58,1.46-1.56,2.59-3.49,3.35-5.74,.75-2.22,1.12-4.78,1.12-7.62,0-3.76-.7-7.02-2.08-9.69-1.39-2.7-3.36-4.79-5.84-6.22Zm-8.63,26.35c-1.72,0-3.12-.39-4.17-1.16-1.06-.78-1.85-1.93-2.37-3.43-.55-1.6-.82-3.56-.82-5.84,0-3.41,.61-6.04,1.82-7.8,1.14-1.67,2.95-2.48,5.52-2.48,1.74,0,3.16,.38,4.21,1.14,1.07,.77,1.84,1.86,2.35,3.35,.54,1.57,.81,3.52,.81,5.8s-.27,4.25-.81,5.85c-.51,1.5-1.3,2.65-2.35,3.43-1.05,.77-2.45,1.16-4.17,1.16Z"/>
  <path class="cls-1" d="M347.01,184.72c-1.52,0-3,.2-4.4,.6-1.42,.41-2.73,1.02-3.87,1.83-.69,.49-1.32,1.06-1.89,1.7l-.77-3.51h-7.26v34.97h9v-17.38c0-3.52,.57-6.22,1.71-8.01,1.05-1.67,2.95-2.48,5.81-2.48,1.91,0,3.25,.51,4.11,1.56,.9,1.09,1.35,2.82,1.35,5.13v21.19h9v-22.5c0-4.5-1.16-7.85-3.43-9.95-2.26-2.08-5.41-3.14-9.36-3.14Z"/>
  <path class="cls-1" d="M391.61,187.73c-2.31-2-5.71-3.01-10.11-3.01-2.3,0-4.55,.28-6.67,.84-2.12,.55-4.04,1.28-5.71,2.17l-.83,.44,3.08,6.72,.92-.43c1.42-.67,2.9-1.25,4.39-1.71,1.45-.45,2.96-.67,4.5-.67,1.66,0,2.94,.4,3.81,1.2,.84,.77,1.27,2.17,1.27,4.15v.76l-4.75,.17c-5.29,.18-9.33,1.19-12.01,3-2.81,1.9-4.24,4.75-4.24,8.48,0,2.46,.5,4.54,1.48,6.17,.99,1.66,2.37,2.91,4.1,3.71,1.68,.78,3.59,1.18,5.7,1.18,1.96,0,3.65-.21,5.04-.62,1.41-.42,2.68-1.06,3.77-1.91,.68-.53,1.35-1.16,2.01-1.87l1.09,3.81h6.73v-23.19c0-4.2-1.19-7.36-3.55-9.4Zm-5.39,16.86v1.82c0,2.4-.67,4.14-2.05,5.33-1.42,1.23-3.18,1.83-5.38,1.83-1.36,0-2.45-.31-3.23-.91-.72-.55-1.07-1.46-1.07-2.77,0-1.55,.56-2.73,1.72-3.61,1.24-.94,3.52-1.47,6.79-1.58l3.22-.11Z"/>
  <path class="cls-1" d="M418.75,213.02c-.83,.16-1.68,.24-2.53,.24-1.11,0-1.96-.31-2.61-.94-.63-.61-.95-1.62-.95-3.01v-16.63h9.44v-7.33h-9.44v-7.33h-6.13l-2.39,7.36-5,2.56v4.74h4.5v16.72c0,2.86,.49,5.17,1.44,6.84,.98,1.72,2.33,2.95,4.02,3.66,1.6,.67,3.43,1.02,5.42,1.02,1.39,0,2.74-.13,4.03-.38,1.3-.25,2.38-.56,3.22-.93l.6-.26v-7.33l-1.31,.42c-.69,.22-1.47,.42-2.32,.58Z"/>
  <rect class="cls-1" x="427.08" y="185.35" width="30" height="54.97"/>
  <path class="cls-1" d="M435,173.78c-.96-.7-2.09-1.06-3.38-1.06s-2.48,.36-3.42,1.07c-1.03,.77-1.54,2.04-1.54,3.78s.52,2.98,1.54,3.76c.94,.72,2.09,1.08,3.42,1.08s2.43-.36,3.38-1.08c1.05-.78,1.58-2.05,1.58-3.76s-.53-3.01-1.58-3.78Z"/>
  <path class="cls-1" d="M467.36,186.85c-2.47-1.41-5.34-2.13-8.54-2.13-3.4,0-6.38,.72-8.86,2.13-2.51,1.42-4.46,3.52-5.81,6.22-1.32,2.66-2,5.92-2,9.69,0,2.84,.4,5.41,1.19,7.63,.8,2.25,1.95,4.17,3.42,5.73,1.47,1.56,3.24,2.76,5.25,3.58,2,.81,4.22,1.22,6.6,1.22,2.54,0,4.85-.41,6.89-1.22,2.05-.82,3.84-2.02,5.31-3.58,1.46-1.56,2.59-3.49,3.35-5.74,.75-2.22,1.12-4.78,1.12-7.62,0-3.76-.7-7.02-2.08-9.69-1.39-2.7-3.36-4.79-5.84-6.22Zm-8.63,26.35c-1.72,0-3.12-.39-4.17-1.16-1.06-.78-1.85-1.93-2.37-3.43-.55-1.6-.82-3.56-.82-5.84,0-3.41,.61-6.04,1.82-7.8,1.14-1.67,2.95-2.48,5.52-2.48,1.74,0,3.16,.38,4.21,1.14,1.07,.77,1.84,1.86,2.35,3.35,.54,1.57,.81,3.52,.81,5.8s-.27,4.25-.81,5.85c-.51,1.5-1.3,2.65-2.35,3.43-1.05,.77-2.45,1.16-4.17,1.16Z"/>
  <path class="cls-1" d="M499.51,184.72c-1.52,0-3,.2-4.4,.6-1.42,.41-2.73,1.02-3.87,1.83-.69,.49-1.32,1.06-1.89,1.7l-.77-3.51h-7.26v34.97h9v-17.38c0-3.52,.57-6.22,1.71-8.01,1.05-1.67,2.95-2.48,5.81-2.48,1.91,0,3.25,.51,4.11,1.56,.9,1.09,1.35,2.82,1.35,5.13v21.19h9v-22.5c0-4.5-1.16-7.85-3.43-9.95-2.26-2.08-5.41-3.14-9.36-3.14Z"/>
  <path class="cls-1" d="M539.25,201.4c-1.48-.84-3.24-1.66-5.24-2.43-1.98-.78-3.53-1.45-4.63-1.97-1.23-.59-1.79-1.06-2.04-1.35-.3-.35-.45-.79-.45-1.32,0-.68,.28-1.14,.92-1.52,.78-.46,2-.7,3.62-.7,1.45,0,2.89,.2,4.3,.6,1.45,.41,2.91,.94,4.35,1.58l.93,.41,2.97-7.11-.89-.4c-1.78-.8-3.62-1.42-5.48-1.84-1.86-.42-3.87-.63-5.95-.63-3.99,0-7.27,.82-9.74,2.44-2.6,1.71-3.92,4.23-3.92,7.49,0,2.03,.42,3.73,1.25,5.07,.82,1.32,2.03,2.45,3.59,3.36,1.46,.85,3.28,1.72,5.4,2.57,2.07,.83,3.67,1.55,4.73,2.14,1.2,.66,1.71,1.16,1.93,1.46,.28,.39,.42,.83,.42,1.34,0,.89-.35,1.55-1.1,2.09-.57,.41-1.8,.9-4.39,.9-1.65,0-3.43-.26-5.29-.77-1.89-.52-3.61-1.14-5.13-1.85l-1.42-.67v8.26l.58,.27c1.53,.71,3.18,1.24,4.92,1.58,1.72,.34,3.78,.51,6.14,.51,3.02,0,5.63-.41,7.76-1.21,2.2-.83,3.9-2.09,5.06-3.74,1.17-1.66,1.76-3.69,1.76-6.06,0-2.08-.45-3.81-1.32-5.16-.86-1.32-2.09-2.44-3.66-3.35Z"/>
</svg>