<svg width="105" height="105" viewBox="0 0 105 105" fill="none" xmlns="http://www.w3.org/2000/svg">
<path d="M84.9765 59.9893C83.6507 59.9893 82.3793 60.5162 81.4419 61.4541C80.5045 62.392 79.9778 63.6641 79.9778 64.9905V66.8909L72.5799 59.4892C69.9677 56.8963 66.4372 55.4413 62.7576 55.4413C59.078 55.4413 55.5475 56.8963 52.9353 59.4892L49.4363 62.99L37.0397 50.5871C34.3911 48.0645 30.8743 46.6576 27.2175 46.6576C23.5606 46.6576 20.0439 48.0645 17.3952 50.5871L9.99723 57.9888V29.9822C9.99723 28.6558 10.5239 27.3837 11.4613 26.4458C12.3987 25.5079 13.6701 24.981 14.9958 24.981H49.9862C51.3119 24.981 52.5833 24.4541 53.5207 23.5162C54.4581 22.5783 54.9848 21.3062 54.9848 19.9798C54.9848 18.6534 54.4581 17.3814 53.5207 16.4435C52.5833 15.5055 51.3119 14.9786 49.9862 14.9786H14.9958C11.0187 14.9786 7.20445 16.5594 4.39218 19.3731C1.57992 22.1868 0 26.003 0 29.9822V89.9964C0 93.9756 1.57992 97.7918 4.39218 100.605C7.20445 103.419 11.0187 105 14.9958 105H74.9792C78.9564 105 82.7706 103.419 85.5829 100.605C88.3952 97.7918 89.9751 93.9756 89.9751 89.9964V64.9905C89.9751 63.6641 89.4484 62.392 88.511 61.4541C87.5736 60.5162 86.3022 59.9893 84.9765 59.9893ZM14.9958 94.9976C13.6701 94.9976 12.3987 94.4707 11.4613 93.5328C10.5239 92.5949 9.99723 91.3228 9.99723 89.9964V72.1422L24.4932 57.6387C25.2276 56.9386 26.2031 56.548 27.2175 56.548C28.2319 56.548 29.2074 56.9386 29.9417 57.6387L45.7873 73.4925L67.2814 94.9976H14.9958ZM79.9778 89.9964C79.9707 90.9538 79.6551 91.8833 79.0781 92.647L56.5343 69.9916L60.0334 66.4908C60.3917 66.1249 60.8195 65.8342 61.2916 65.6357C61.7636 65.4372 62.2705 65.335 62.7826 65.335C63.2947 65.335 63.8016 65.4372 64.2737 65.6357C64.7457 65.8342 65.1735 66.1249 65.5318 66.4908L79.9778 81.0443V89.9964Z" fill="#414042"/>
<path d="M88.5256 1.4254L103.521 16.429C103.99 16.8939 104.362 17.447 104.616 18.0565C104.869 18.6659 105 19.3196 105 19.9798C105 20.64 104.869 21.2937 104.616 21.9031C104.362 22.5126 103.99 23.0657 103.521 23.5306C103.057 23.9994 102.504 24.3714 101.895 24.6253C101.286 24.8792 100.632 25.01 99.9724 25.01C99.3125 25.01 98.6592 24.8792 98.0501 24.6253C97.4409 24.3714 96.8881 23.9994 96.4234 23.5306L89.9752 17.0291V44.9857C89.9752 46.3121 89.4486 47.5842 88.5111 48.5221C87.5737 49.46 86.3023 49.9869 84.9766 49.9869C83.6509 49.9869 82.3794 49.46 81.442 48.5221C80.5046 47.5842 79.978 46.3121 79.978 44.9857V17.0291L73.5298 23.5306C72.5885 24.4724 71.3119 25.0014 69.9807 25.0014C68.6496 25.0014 67.373 24.4724 66.4317 23.5306C65.4905 22.5889 64.9617 21.3116 64.9617 19.9798C64.9617 19.3203 65.0915 18.6673 65.3437 18.0581C65.596 17.4488 65.9657 16.8953 66.4317 16.429L81.4276 1.4254C81.903 0.970093 82.4635 0.613185 83.0771 0.375156C84.2941 -0.125052 85.6591 -0.125052 86.8761 0.375156C87.4896 0.613185 88.0502 0.970093 88.5256 1.4254Z" fill="#3DB54A"/>
</svg>
