<?xml version="1.0" encoding="UTF-8"?>
<svg id="Layer_1" data-name="Layer 1" xmlns="http://www.w3.org/2000/svg" viewBox="0 0 357.98 319.53">
  <defs>
    <style>
      .cls-1 {
        fill: #424142;
      }

      .cls-2 {
        fill: #39b54a;
      }

      .cls-3 {
        fill: #ee4037;
      }
    </style>
  </defs>
  <g>
    <path class="cls-2" d="M137.41,107.8c2.71,.52,5.17,.9,7.58,1.48,4.72,1.13,9.21,2.84,12.92,6.09,1.29,1.13,2.38,2.52,3.4,3.9,.35,.48,.54,1.5,.26,1.91-1.3,1.93-5.03,1.14-6.95,1.04-4.17-.22-8.33,.42-12.51,.61-4.99,.22-9.52-.59-13.99-2.85-15.12-7.65-24.99-19.57-28.91-36.19-.84-3.58-1.25-7.24-1.18-11.26,2.92,2.93,6.28,4.6,9.82,5.92,5.83,2.18,11.9,3.34,18.05,4.07,10.07,1.19,20.18,1.5,30.28,.78,8.94-.64,16.2,2.95,22.95,8.15,7.8,6.01,13.84,13.56,18.91,21.93,.61,1,.65,1.98-.3,2.75-.94,.76-1.89,.52-2.77-.24-4.56-3.96-9.53-7.3-15.04-9.82-6.61-3.03-13.54-4.65-20.83-4.44-7.65,.22-14.78,2.39-21.72,6.15Z"/>
    <path class="cls-3" d="M178.22,153.56c-3.76-3.8-7.44-7.47-11.06-11.2-1.23-1.27-2.57-2.53-3.44-4.03-3.09-5.37,.93-12.18,7.11-12.28,2.45-.04,4.69,.59,6.55,2.19,.75,.65,1.17,.56,1.89-.04,3.28-2.73,8.3-2.91,11.37-.47,3.84,3.05,4.45,8.75,1.07,12.31-4.32,4.54-8.85,8.89-13.49,13.53Z"/>
    <path class="cls-2" d="M167.38,105.34c-4.03-1.68-8.2-2.62-12.61-2.71,.78-.1,1.55-.27,2.33-.3,12.98-.58,23.98,4.18,33.65,12.52,1.09,.94,3.24,2.19,2.54,3.96-.53,1.34-2.11,.93-3.09,.42-.79-.41-1.62-.8-2.35-1.31-3.87-2.69-7.61-5.57-11.51-8.22-1.75-1.19-3.76-2.01-5.65-3-1.11-.46-2.21-.91-3.32-1.37Z"/>
    <path class="cls-2" d="M167.08,105.98c4.37,1.57,8.3,4.12,11.83,7.11,1.14,.97,2.24,1.99,3.29,3.06,.65,.66,3.35,3.19,1.6,4.04-.54,.26-1.18,.03-1.72-.23-4.97-2.39-8.54-6.84-12.97-10.01-4.35-3.11-9.2-5.21-14.61-5.77-.14-.01-.24-.14-.22-.28l.02-.17c4.06,.46,8.1,.7,12.01,1.98,.25,.08,.5,.17,.75,.26Z"/>
    <path class="cls-2" d="M154.77,104.88c1.37,.25,2.76,.4,4.1,.77,6.21,1.69,11.17,5.48,15.2,10.41,.23,.28,.47,.59,.53,.95,.2,1.3-1.26,1.23-1.94,.73-1.15-.84-2.14-2.14-3.19-3.12-4.13-3.87-8.36-7.54-13.89-9.19-.29-.09-.58-.15-.87-.22,.02-.11,.04-.21,.06-.32Z"/>
    <g>
      <path class="cls-2" d="M218.99,172.06c-2.71-.52-5.17-.9-7.58-1.48-4.72-1.13-9.21-2.84-12.92-6.09-1.29-1.13-2.38-2.52-3.4-3.9-.35-.48-.54-1.5-.26-1.91,1.3-1.93,5.03-1.14,6.95-1.04,4.17,.22,8.33-.42,12.51-.61,4.99-.22,9.52,.59,13.99,2.85,15.12,7.65,24.99,19.57,28.91,36.19,.84,3.58,1.25,7.24,1.18,11.26-2.92-2.93-6.28-4.6-9.82-5.92-5.83-2.18-11.9-3.34-18.05-4.07-10.07-1.19-20.18-1.5-30.28-.78-8.94,.64-16.2-2.95-22.95-8.15-7.8-6.01-13.84-13.56-18.91-21.93-.61-1-.65-1.98,.3-2.75,.94-.76,1.89-.52,2.77,.24,4.56,3.96,9.53,7.3,15.04,9.82,6.61,3.03,13.54,4.65,20.83,4.44,7.65-.22,14.78-2.39,21.72-6.15Z"/>
      <path class="cls-2" d="M189.01,174.52c4.03,1.68,8.2,2.62,12.61,2.71-.78,.1-1.55,.27-2.33,.3-12.98,.58-23.98-4.18-33.65-12.52-1.09-.94-3.24-2.19-2.54-3.96,.53-1.34,2.11-.93,3.09-.42,.79,.41,1.62,.8,2.35,1.31,3.87,2.69,7.61,5.57,11.51,8.22,1.75,1.19,3.76,2.01,5.65,3,1.11,.46,2.21,.91,3.32,1.37Z"/>
      <path class="cls-2" d="M189.32,173.88c-4.37-1.57-8.3-4.12-11.83-7.11-1.14-.97-2.24-1.99-3.29-3.06-.65-.66-3.35-3.19-1.6-4.04,.54-.26,1.18-.03,1.72,.23,4.97,2.39,8.54,6.84,12.97,10.01,4.35,3.11,9.2,5.21,14.61,5.77,.14,.01,.24,.14,.22,.28l-.02,.17c-4.06-.46-8.1-.7-12.01-1.98-.25-.08-.5-.17-.75-.26Z"/>
      <path class="cls-2" d="M201.63,174.98c-1.37-.25-2.76-.4-4.1-.77-6.21-1.69-11.17-5.48-15.2-10.41-.23-.28-.47-.59-.53-.95-.2-1.3,1.26-1.23,1.94-.73,1.15,.84,2.14,2.14,3.19,3.12,4.13,3.87,8.36,7.54,13.89,9.19,.29,.09,.58,.15,.87,.22-.02,.11-.04,.21-.06,.32Z"/>
    </g>
  </g>
  <polygon class="cls-1" points="66.12 230.91 55.62 230.91 55.62 220.7 50.52 220.7 50.52 246.65 55.62 246.65 55.62 235.39 66.12 235.39 66.12 246.65 71.2 246.65 71.2 220.7 66.12 220.7 66.12 230.91"/>
  <rect class="cls-1" x="76.38" y="226.76" width="5.01" height="19.89"/>
  <path class="cls-1" d="M80.8,220.12c-1.09-.8-2.77-.77-3.8,0-.57,.43-.86,1.14-.86,2.11s.29,1.66,.85,2.09c.52,.4,1.17,.61,1.92,.61s1.36-.2,1.89-.6c.58-.43,.88-1.14,.88-2.1s-.3-1.68-.88-2.11Z"/>
  <path class="cls-1" d="M96.3,226.42c-1.52,0-2.8,.31-3.79,.92-.55,.34-1.04,.73-1.46,1.16,0-.09,.01-.19,.02-.29,.04-.72,.06-1.46,.06-2.21v-6.9h-5.01v27.55h3.87l.64-2.02c.49,.56,1.1,1.06,1.83,1.5,.96,.57,2.21,.87,3.73,.87,1.62,0,3.05-.4,4.26-1.2,1.21-.8,2.16-1.98,2.82-3.52,.65-1.51,.98-3.39,.98-5.59,0-3.32-.73-5.89-2.16-7.62-1.46-1.76-3.41-2.65-5.79-2.65Zm2.83,10.21c0,2.01-.35,3.55-1.04,4.6-.66,.99-1.58,1.47-2.81,1.47-1.59,0-2.64-.47-3.21-1.43-.62-1.03-.93-2.57-.93-4.57v-.35c.01-1.33,.16-2.44,.44-3.29,.26-.8,.67-1.39,1.25-1.78,.58-.4,1.39-.6,2.42-.6,1.27,0,2.2,.46,2.86,1.4,.68,.99,1.03,2.52,1.03,4.55Z"/>
  <path class="cls-1" d="M121.53,228.11c-1.31-1.13-3.24-1.71-5.75-1.71-1.31,0-2.59,.16-3.8,.48-1.21,.32-2.3,.73-3.26,1.24l-.42,.22,1.7,3.72,.46-.22c.82-.39,1.67-.72,2.53-.98,.84-.26,1.71-.39,2.6-.39,.97,0,1.72,.24,2.23,.71,.5,.46,.75,1.27,.75,2.43v.51l-2.79,.1c-3.02,.11-5.32,.68-6.84,1.71-1.59,1.07-2.4,2.69-2.4,4.8,0,1.39,.28,2.57,.84,3.5,.56,.94,1.34,1.64,2.32,2.1,.95,.44,2.04,.67,3.23,.67,1.11,0,2.08-.12,2.86-.35,.8-.24,1.52-.6,2.14-1.08,.42-.33,.83-.71,1.23-1.16l.65,2.26h3.73v-13.21c0-2.38-.68-4.18-2.01-5.33Zm-2.97,9.53v1.12c0,1.4-.39,2.41-1.2,3.11-.83,.72-1.85,1.06-3.13,1.06-.79,0-1.43-.18-1.9-.54-.43-.33-.64-.87-.64-1.64,0-.91,.33-1.61,1.01-2.13,.72-.55,2.04-.86,3.93-.92l1.92-.07Z"/>
  <path class="cls-1" d="M152.73,222.15c-1.94-.96-4.26-1.44-6.91-1.44h-8.18v25.95h7.43c2.87,0,5.37-.5,7.42-1.47,2.08-.99,3.69-2.49,4.78-4.46,1.08-1.95,1.63-4.4,1.63-7.28s-.54-5.09-1.6-6.98c-1.07-1.89-2.61-3.35-4.57-4.32Zm-10,2.95h3c1.73,0,3.2,.31,4.37,.91,1.14,.59,2.02,1.5,2.61,2.72,.61,1.25,.91,2.87,.91,4.83,0,2.89-.7,5.08-2.09,6.51-1.39,1.43-3.54,2.15-6.4,2.15h-2.4v-17.12Z"/>
  <path class="cls-1" d="M176.07,227.61c-1.4-.8-3.04-1.21-4.86-1.21-1.93,0-3.63,.41-5.04,1.21-1.42,.81-2.53,2-3.3,3.53-.75,1.51-1.14,3.37-1.14,5.52,0,1.62,.23,3.08,.68,4.35,.45,1.28,1.11,2.37,1.94,3.26,.83,.88,1.84,1.57,2.98,2.03,1.14,.46,2.4,.69,3.75,.69,1.44,0,2.76-.23,3.92-.69,1.17-.46,2.18-1.15,3.01-2.03,.83-.88,1.47-1.98,1.9-3.26,.42-1.26,.64-2.72,.64-4.34,0-2.14-.4-4-1.18-5.52-.79-1.54-1.91-2.72-3.32-3.53Zm-4.91,15.11c-1,0-1.82-.23-2.44-.68-.62-.45-1.08-1.13-1.38-2-.32-.92-.48-2.06-.48-3.37,0-1.97,.36-3.49,1.06-4.51,.67-.98,1.72-1.46,3.22-1.46,1.01,0,1.84,.22,2.46,.67,.62,.44,1.08,1.1,1.37,1.96,.31,.91,.47,2.03,.47,3.35s-.16,2.45-.47,3.37c-.29,.88-.76,1.55-1.37,2-.62,.45-1.43,.68-2.44,.68Z"/>
  <path class="cls-1" d="M194.53,226.4c-.86,0-1.71,.12-2.5,.34-.81,.23-1.55,.58-2.2,1.04-.43,.3-.82,.66-1.16,1.07l-.46-2.09h-4.02v19.89h5.01v-9.89c0-2.03,.33-3.59,.99-4.63,.62-.98,1.73-1.46,3.39-1.46,1.12,0,1.9,.3,2.41,.92,.52,.64,.79,1.64,.79,2.99v12.07h5.01v-12.82c0-2.56-.65-4.46-1.94-5.65-1.28-1.18-3.07-1.78-5.31-1.78Z"/>
  <path class="cls-1" d="M220.04,228.11c-1.31-1.13-3.24-1.71-5.75-1.71-1.31,0-2.59,.16-3.8,.48-1.21,.32-2.3,.73-3.26,1.24l-.42,.22,1.7,3.72,.46-.22c.82-.39,1.67-.72,2.53-.98,.84-.26,1.71-.39,2.6-.39,.97,0,1.72,.24,2.23,.71,.5,.46,.75,1.27,.75,2.43v.51l-2.79,.1c-3.02,.11-5.32,.68-6.84,1.71-1.59,1.07-2.4,2.69-2.4,4.8,0,1.39,.28,2.57,.84,3.5,.56,.94,1.34,1.64,2.32,2.1,.95,.44,2.04,.67,3.23,.67,1.11,0,2.08-.12,2.86-.35,.8-.24,1.52-.6,2.14-1.08,.42-.33,.83-.71,1.23-1.16l.65,2.26h3.73v-13.21c0-2.38-.68-4.18-2.01-5.33Zm-2.97,9.53v1.12c0,1.4-.39,2.41-1.2,3.11-.83,.72-1.85,1.06-3.13,1.06-.79,0-1.43-.18-1.9-.54-.43-.33-.64-.87-.64-1.64,0-.91,.33-1.61,1.01-2.13,.72-.55,2.04-.86,3.93-.92l1.92-.07Z"/>
  <path class="cls-1" d="M235.65,242.62c-.48,.09-.97,.14-1.46,.14-.66,0-1.16-.18-1.54-.56-.38-.37-.57-.96-.57-1.78v-9.6h5.41v-4.05h-5.41v-4.2h-3.39l-1.36,4.19-2.85,1.46v2.6h2.58v9.65c0,1.63,.27,2.94,.82,3.88,.55,.97,1.32,1.66,2.27,2.06,.91,.38,1.95,.58,3.08,.58,.79,0,1.56-.07,2.3-.21,.74-.14,1.35-.32,1.83-.53l.3-.13v-4.05l-.65,.21c-.4,.13-.85,.24-1.34,.33Z"/>
  <rect class="cls-1" x="240.48" y="226.76" width="5.01" height="19.89"/>
  <path class="cls-1" d="M244.9,220.12c-1.09-.8-2.77-.77-3.8,0-.57,.43-.86,1.14-.86,2.11s.29,1.66,.85,2.09c.52,.4,1.17,.61,1.92,.61s1.36-.2,1.89-.6c.58-.43,.88-1.14,.88-2.1s-.3-1.68-.88-2.11Z"/>
  <path class="cls-1" d="M263.45,227.61c-1.4-.8-3.04-1.21-4.86-1.21-1.93,0-3.63,.41-5.04,1.21-1.42,.81-2.53,2-3.3,3.53-.75,1.51-1.14,3.37-1.14,5.52,0,1.62,.23,3.08,.68,4.35,.45,1.28,1.11,2.37,1.94,3.26,.83,.88,1.84,1.57,2.98,2.03,1.14,.46,2.4,.69,3.75,.69,1.44,0,2.76-.23,3.92-.69,1.17-.46,2.18-1.15,3.01-2.03,.83-.88,1.47-1.98,1.9-3.26,.42-1.26,.64-2.72,.64-4.34,0-2.14-.4-4-1.18-5.52-.79-1.54-1.91-2.72-3.32-3.53Zm-4.91,15.11c-1,0-1.82-.23-2.44-.68-.62-.45-1.08-1.13-1.38-2-.32-.92-.48-2.06-.48-3.37,0-1.97,.36-3.49,1.06-4.51,.67-.98,1.72-1.46,3.22-1.46,1.01,0,1.84,.22,2.46,.67,.62,.44,1.08,1.1,1.37,1.96,.31,.91,.47,2.03,.47,3.35s-.16,2.45-.47,3.37c-.29,.88-.76,1.55-1.37,2-.62,.45-1.43,.68-2.44,.68Z"/>
  <path class="cls-1" d="M281.91,226.4c-.86,0-1.71,.12-2.5,.34-.81,.23-1.55,.58-2.2,1.04-.43,.3-.82,.66-1.16,1.07l-.46-2.09h-4.02v19.89h5.01v-9.89c0-2.03,.33-3.59,.99-4.63,.62-.98,1.73-1.46,3.39-1.46,1.12,0,1.9,.3,2.41,.92,.52,.64,.79,1.64,.79,2.99v12.07h5.01v-12.82c0-2.56-.65-4.46-1.94-5.65-1.28-1.18-3.07-1.78-5.31-1.78Z"/>
  <path class="cls-1" d="M306.71,237.84c-.48-.75-1.18-1.38-2.07-1.89-.84-.48-1.85-.95-2.99-1.39-1.14-.45-2.03-.83-2.66-1.13-.72-.34-1.04-.62-1.19-.79-.18-.22-.27-.48-.27-.8,0-.42,.17-.7,.56-.93,.46-.27,1.17-.41,2.11-.41,.84,0,1.67,.12,2.48,.35,.84,.24,1.68,.54,2.5,.91l.47,.21,1.65-3.94-.44-.2c-1.01-.45-2.06-.81-3.12-1.05-1.06-.24-2.2-.36-3.4-.36-2.27,0-4.14,.47-5.54,1.39-1.47,.96-2.21,2.39-2.21,4.23,0,1.15,.24,2.11,.71,2.87,.46,.74,1.15,1.38,2.03,1.9,.84,.49,1.88,.98,3.09,1.47,1.19,.48,2.11,.89,2.72,1.23,.7,.39,1,.68,1.13,.86,.17,.24,.26,.5,.26,.81,0,.53-.21,.93-.66,1.26-.49,.35-1.35,.53-2.56,.53-.95,0-1.98-.15-3.05-.44-1.09-.3-2.08-.66-2.95-1.06l-.71-.33v4.57l.29,.13c.87,.4,1.81,.7,2.8,.9,.98,.19,2.16,.29,3.5,.29,1.72,0,3.21-.23,4.42-.69,1.25-.47,2.21-1.18,2.87-2.12,.66-.94,1-2.09,1-3.43,0-1.17-.25-2.16-.75-2.92Z"/>
</svg>