<svg width="30" height="27" viewBox="0 0 30 27" fill="none" xmlns="http://www.w3.org/2000/svg">
<path d="M8.73047 2.03125C8.73047 1.67969 8.55469 1.32812 8.32031 1.03516C8.02734 0.800781 7.67578 0.625 7.32422 0.625H1.40625C0.996094 0.625 0.644531 0.800781 0.410156 1.03516C0.117188 1.32812 0 1.67969 0 2.03125V6.71875C0 7.12891 0.117188 7.48047 0.410156 7.71484C0.644531 8.00781 0.996094 8.125 1.40625 8.125H7.32422C7.67578 8.125 8.02734 8.00781 8.32031 7.71484C8.55469 7.48047 8.73047 7.12891 8.73047 6.71875V2.03125ZM19.3945 16.0938C19.3945 16.5039 19.2188 16.8555 18.9844 17.0898C18.6914 17.3828 18.3398 17.5 17.9883 17.5H12.0117C11.6016 17.5 11.25 17.3828 11.0156 17.0898C10.7227 16.8555 10.6055 16.5039 10.6055 16.0938V11.4062C10.6055 11.0547 10.7227 10.7031 11.0156 10.4102C11.25 10.1758 11.6016 10 12.0117 10H17.9883C18.3398 10 18.6914 10.1758 18.9844 10.4102C19.2188 10.7031 19.3945 11.0547 19.3945 11.4062V16.0938ZM21.2695 2.03125C21.2695 1.67969 21.3867 1.32812 21.6797 1.03516C21.9141 0.800781 22.2656 0.625 22.6758 0.625H28.5938C28.9453 0.625 29.2969 0.800781 29.5898 1.03516C29.8242 1.32812 30 1.67969 30 2.03125V6.71875C30 7.12891 29.8242 7.48047 29.5898 7.71484C29.2969 8.00781 28.9453 8.125 28.5938 8.125H22.6758C22.2656 8.125 21.9141 8.00781 21.6797 7.71484C21.3867 7.48047 21.2695 7.12891 21.2695 6.71875V2.03125ZM19.3945 6.71875C19.3945 7.12891 19.2188 7.48047 18.9844 7.71484C18.6914 8.00781 18.3398 8.125 17.9883 8.125H12.0117C11.6016 8.125 11.25 8.00781 11.0156 7.71484C10.7227 7.48047 10.6055 7.12891 10.6055 6.71875V2.03125C10.6055 1.67969 10.7227 1.32812 11.0156 1.03516C11.25 0.800781 11.6016 0.625 12.0117 0.625H17.9883C18.3398 0.625 18.6914 0.800781 18.9844 1.03516C19.2188 1.32812 19.3945 1.67969 19.3945 2.03125V6.71875ZM7.32422 10C7.67578 10 8.02734 10.1758 8.32031 10.4102C8.55469 10.7031 8.73047 11.0547 8.73047 11.4062V16.0938C8.73047 16.5039 8.55469 16.8555 8.32031 17.0898C8.02734 17.3828 7.67578 17.5 7.32422 17.5H1.40625C0.996094 17.5 0.644531 17.3828 0.410156 17.0898C0.117188 16.8555 0 16.5039 0 16.0938V11.4062C0 11.0547 0.117188 10.7031 0.410156 10.4102C0.644531 10.1758 0.996094 10 1.40625 10H7.32422ZM0 20.7812C0 20.4297 0.117188 20.0781 0.410156 19.7852C0.644531 19.5508 0.996094 19.375 1.40625 19.375H7.32422C7.67578 19.375 8.02734 19.5508 8.32031 19.7852C8.55469 20.0781 8.73047 20.4297 8.73047 20.7812V25.4688C8.73047 25.8789 8.55469 26.2305 8.32031 26.4648C8.02734 26.7578 7.67578 26.875 7.32422 26.875H1.40625C0.996094 26.875 0.644531 26.7578 0.410156 26.4648C0.117188 26.2305 0 25.8789 0 25.4688V20.7812ZM22.6758 17.5C22.2656 17.5 21.9141 17.3828 21.6797 17.0898C21.3867 16.8555 21.2695 16.5039 21.2695 16.0938V11.4062C21.2695 11.0547 21.3867 10.7031 21.6797 10.4102C21.9141 10.1758 22.2656 10 22.6758 10H28.5938C28.9453 10 29.2969 10.1758 29.5898 10.4102C29.8242 10.7031 30 11.0547 30 11.4062V16.0938C30 16.5039 29.8242 16.8555 29.5898 17.0898C29.2969 17.3828 28.9453 17.5 28.5938 17.5H22.6758ZM22.6758 26.875C22.2656 26.875 21.9141 26.7578 21.6797 26.4648C21.3867 26.2305 21.2695 25.8789 21.2695 25.4688V20.7812C21.2695 20.4297 21.3867 20.0781 21.6797 19.7852C21.9141 19.5508 22.2656 19.375 22.6758 19.375H28.5938C28.9453 19.375 29.2969 19.5508 29.5898 19.7852C29.8242 20.0781 30 20.4297 30 20.7812V25.4688C30 25.8789 29.8242 26.2305 29.5898 26.4648C29.2969 26.7578 28.9453 26.875 28.5938 26.875H22.6758ZM10.6055 20.7812C10.6055 20.4297 10.7227 20.0781 11.0156 19.7852C11.25 19.5508 11.6016 19.375 12.0117 19.375H17.9883C18.3398 19.375 18.6914 19.5508 18.9844 19.7852C19.2188 20.0781 19.3945 20.4297 19.3945 20.7812V25.4688C19.3945 25.8789 19.2188 26.2305 18.9844 26.4648C18.6914 26.7578 18.3398 26.875 17.9883 26.875H12.0117C11.6016 26.875 11.25 26.7578 11.0156 26.4648C10.7227 26.2305 10.6055 25.8789 10.6055 25.4688V20.7812Z" fill="#3DB54A"/>
</svg>
